<svg width="55" height="22" viewBox="0 0 55 22" fill="none" xmlns="http://www.w3.org/2000/svg">
<path fill-rule="evenodd" clip-rule="evenodd" d="M42.6146 0V10.9779C42.231 11.2807 41.905 11.605 41.6012 11.9546V0H29.441V9.99615H28.4336V0H16.2712V10.012H15.2652V0H3.10266V11.4113L0 21.7577H2.72891L4.09984 17.1755H4.49408L6.75744 21.7577H10.0551L7.85898 17.1755H12.8422L11.4595 21.7577H14.4421L15.8063 17.1884H16.461V17.1755H23.1008L21.7839 21.7441H24.7908L26.0668 17.1755H27.4199L27.4561 21.7441H29.9788L32.8739 17.1755H34.7695L33.7919 21.7441H36.7525L37.7127 17.1755H39.425C39.3569 18.5918 39.7189 19.8781 40.6583 20.7442C41.8052 21.7984 43.5669 22 44.871 22C46.6547 22 48.5064 21.7441 50.3696 21.324L51.3954 17.1755H54.7748V0H42.6146ZM14.8269 10.5947L14.6501 11.181L13.0339 16.5584L12.9701 16.7476H7.65126L7.23634 15.8714L12.9701 10.012H9.28617L4.80253 14.8418L6.25482 10.012H3.53847V0.433664H14.8269V10.5947ZM17.9633 15.1419H17.9668C19.3565 15.0358 19.7878 14.5055 20.1285 13.461C20.3276 12.8546 20.3494 12.4557 20.1807 12.2251C19.961 11.9179 19.3565 11.8636 18.4012 11.8636H17.8414C17.7641 11.8636 17.6849 11.865 17.6045 11.8665L17.6044 11.8665C17.5212 11.868 17.4366 11.8695 17.3513 11.8695L16.972 13.3073L16.8139 13.9211L16.4795 15.157L17.2025 15.1629C17.2587 15.1629 17.3163 15.1617 17.3784 15.1603C17.4507 15.1587 17.5289 15.157 17.6176 15.157C17.71 15.157 17.7938 15.1519 17.875 15.147L17.9102 15.1448L17.9633 15.1419ZM26.1884 16.7476L27.378 12.5243L27.42 16.7476H26.1884ZM25.1691 9.99616H27.9964V0.433664H16.7082V9.99616C16.7082 9.99616 18.7138 9.9921 18.9507 9.9921C19.0494 9.9921 19.1491 9.99169 19.2493 9.99127C20.525 9.98595 21.8884 9.98028 22.5935 10.8262C23.1008 11.439 23.2134 12.2578 22.9765 13.5021C22.6889 15.1034 21.7594 16.1825 20.2317 16.7476H23.2297L25.1691 9.99616ZM34.8551 16.7476H33.1559L35.7282 12.7002L34.8551 16.7476ZM41.158 12.5243L41.1637 10.1861V0.433664H29.8671V16.7476H30.1784L34.4543 10.0076L39.2317 10.012L37.8123 16.7476H39.4725C39.5054 16.4187 39.566 16.0935 39.6526 15.7584C39.8812 14.801 40.3703 13.6127 41.158 12.5243ZM47.6764 19.5047C47.0313 19.6215 46.3882 19.6991 45.776 19.6991C44.1467 19.6991 43.0134 18.942 42.9897 17.1755H48.2539L47.6764 19.5047ZM51.4996 16.7476H54.3456V0.433664H43.0434V10.6698C44.7412 9.56173 46.7061 9.34664 48.0498 9.34664C49.9389 9.34664 51.3954 9.7486 52.1187 10.7502C52.7588 11.6718 52.5342 12.6744 52.4007 13.2631H49.0082C49.1322 12.0017 48.2261 11.6541 47.3141 11.6541C45.0094 11.6541 43.6771 13.6594 43.1758 15.6888C43.1419 15.8404 43.1147 15.9857 43.0885 16.126C43.0735 16.2059 43.0588 16.2842 43.0434 16.3611V16.7476H45.7986L46.2675 14.8655H51.9696L51.4996 16.7476Z" fill="white"/>
</svg>
